<?xml version="1.0" encoding="UTF-8"?>
<svg id="Layer_2" data-name="Layer 2" xmlns="http://www.w3.org/2000/svg" viewBox="0 0 390.5 183.18">
  <defs>
    <style>
      .cls-1, .cls-2, .cls-3 {
        fill: #fff;
      }

      .cls-1, .cls-3 {
        stroke: #fff;
        stroke-miterlimit: 10;
      }

      .cls-3 {
        stroke-width: 2px;
      }
    </style>
  </defs>
  <g id="Layer_1-2" data-name="Layer 1">
    <g>
      <g>
        <g>
          <path class="cls-1" d="M214.82,49.84c-2.53,0-4.68-.56-6.45-1.7-1.77-1.13-3.12-2.7-4.05-4.72-.93-2.01-1.39-4.34-1.39-6.97,0-2.49.48-4.75,1.43-6.76.95-2.01,2.32-3.61,4.1-4.8s3.91-1.78,6.39-1.78c2.7,0,4.93.61,6.69,1.81,1.76,1.21,3.06,2.82,3.92,4.84.85,2.02,1.28,4.25,1.28,6.69,0,1.62-.23,3.22-.68,4.81-.45,1.58-1.16,3.02-2.13,4.31-.96,1.29-2.2,2.32-3.7,3.1-1.5.77-3.31,1.16-5.41,1.16ZM215.17,48.36c1.73,0,3.18-.49,4.33-1.48,1.15-.99,2.02-2.34,2.61-4.05.58-1.71.88-3.63.88-5.77,0-2.47-.3-4.64-.91-6.51-.61-1.87-1.54-3.34-2.8-4.39-1.26-1.05-2.85-1.58-4.78-1.58s-3.32.53-4.47,1.58c-1.15,1.05-1.99,2.43-2.52,4.13s-.79,3.54-.79,5.52c0,2.41.3,4.56.9,6.45.6,1.89,1.53,3.38,2.77,4.47,1.25,1.09,2.84,1.63,4.78,1.63Z"/>
          <path class="cls-1" d="M232.87,45.61v-.69l1.74-.41c.17-.04.31-.13.42-.26.11-.13.17-.29.17-.49v-14.6c0-.2-.06-.37-.17-.51-.11-.14-.25-.22-.42-.26l-1.74-.39v-.69h7.19v.69l-1.8.39c-.17.04-.31.12-.43.26-.12.14-.18.31-.18.5v15.33h6.69c.18,0,.32-.08.4-.24.08-.16.14-.31.16-.43l.94-3.54h.86v5.32h-13.82Z"/>
          <path class="cls-1" d="M250.91,45.6v-.69l1.74-.41c.17-.04.31-.13.42-.26.11-.13.17-.29.17-.49v-14.6c0-.2-.06-.37-.17-.51-.11-.14-.25-.22-.42-.26l-1.74-.39v-.69h7.19v.69l-1.8.39c-.17.04-.31.12-.43.26-.12.14-.18.31-.18.5v15.33h6.69c.18,0,.32-.08.4-.24.08-.16.14-.31.16-.43l.94-3.54h.86v5.32h-13.82Z"/>
          <path class="cls-1" d="M269.26,44.86l-.28-4.74h.84l.96,2.65c.04.11.13.23.26.36.13.14.24.24.34.3.4.25.85.49,1.34.69.49.21.97.37,1.44.48.47.11.88.17,1.23.17,1.16,0,2.08-.31,2.77-.92.69-.62,1.03-1.48,1.03-2.61,0-.81-.22-1.47-.66-1.98-.44-.51-1.04-.93-1.8-1.25-.68-.28-1.35-.5-2.02-.65-.67-.15-1.34-.36-2-.63-.99-.4-1.77-.98-2.32-1.73-.55-.75-.83-1.66-.83-2.72,0-1,.26-1.91.77-2.72.51-.81,1.21-1.46,2.1-1.93.89-.47,1.88-.71,2.99-.71.62,0,1.23.04,1.82.12.59.08,1.16.19,1.71.32.55.13,1.07.28,1.57.43v4.39h-.84l-.84-2.46c-.04-.13-.13-.25-.24-.36-.12-.11-.23-.2-.32-.27-.26-.19-.58-.36-.96-.49-.38-.14-.76-.24-1.15-.31-.39-.07-.73-.11-1.02-.11-1.07,0-1.91.27-2.52.81-.61.54-.91,1.23-.91,2.06,0,.72.17,1.4.51,2.04.34.64,1.01,1.14,2.01,1.51.65.23,1.29.43,1.91.59.62.17,1.3.4,2.04.7.55.23,1.08.52,1.58.88.5.36.91.83,1.24,1.4.32.57.49,1.3.49,2.17,0,.93-.23,1.83-.69,2.7-.46.87-1.19,1.59-2.19,2.15s-2.3.84-3.91.84c-.53,0-1.09-.06-1.69-.17-.6-.11-1.22-.26-1.85-.44-.63-.18-1.26-.37-1.88-.56Z"/>
          <path class="cls-1" d="M300.62,41.95h.32v1.22c-.48.4-1.06.83-1.74,1.26-.68.44-1.43.81-2.25,1.11-.82.3-1.67.45-2.55.45-1.78,0-3.33-.38-4.65-1.14-1.32-.76-2.34-1.85-3.06-3.27s-1.09-3.11-1.09-5.08.39-3.57,1.16-5.01c.77-1.44,1.83-2.56,3.16-3.36,1.34-.8,2.84-1.2,4.51-1.2.6,0,1.26.05,1.98.16s1.42.24,2.11.39,1.26.31,1.74.47v4.31h-.84l-.83-2.49c-.04-.1-.1-.18-.19-.26-.09-.07-.21-.16-.36-.24-.54-.3-1.19-.56-1.98-.77-.78-.21-1.53-.32-2.25-.32-1.61,0-2.92.65-3.95,1.96-1.03,1.31-1.54,3.28-1.54,5.9s.59,4.81,1.76,6.2c1.18,1.38,2.86,2.08,5.06,2.08.92,0,1.72-.13,2.4-.38s1.27-.56,1.77-.93c.5-.36.94-.72,1.34-1.06Z"/>
          <path class="cls-1" d="M314.57,46.02c-1.81,0-3.35-.4-4.61-1.21-1.26-.81-2.23-1.93-2.89-3.37-.66-1.44-1-3.1-1-4.98,0-1.78.34-3.39,1.02-4.83.68-1.44,1.66-2.58,2.93-3.43s2.8-1.27,4.57-1.27c1.93,0,3.53.43,4.78,1.3,1.26.87,2.19,2.02,2.8,3.46.61,1.44.92,3.03.92,4.78,0,1.16-.16,2.31-.49,3.44-.33,1.13-.83,2.16-1.52,3.08-.69.92-1.57,1.66-2.65,2.21-1.08.55-2.36.83-3.87.83ZM314.82,44.97c1.24,0,2.27-.35,3.1-1.06.83-.71,1.45-1.67,1.86-2.89.42-1.22.63-2.59.63-4.12,0-1.76-.22-3.32-.65-4.66-.43-1.34-1.1-2.38-2-3.14-.9-.75-2.04-1.13-3.42-1.13s-2.37.38-3.19,1.13c-.82.75-1.42,1.73-1.8,2.95s-.57,2.53-.57,3.95c0,1.72.22,3.26.65,4.61.43,1.35,1.09,2.42,1.98,3.19.89.78,2.03,1.17,3.42,1.17Z"/>
          <path class="cls-1" d="M326.93,45.62v-.69l1.75-.41c.18-.04.32-.13.43-.26.11-.13.17-.29.17-.49v-14.6c0-.2-.06-.37-.17-.51-.11-.14-.26-.22-.43-.26l-1.75-.39v-.69h7.14v.69l-1.74.39c-.17.04-.31.12-.43.26-.12.14-.18.31-.18.5v14.6c0,.2.06.37.17.49.11.13.26.21.43.26l1.74.41v.69h-7.14Z"/>
          <path class="cls-1" d="M338.46,45.62v-.69l1.74-.41c.17-.04.31-.13.42-.26.11-.13.17-.29.17-.49v-14.6c0-.2-.06-.37-.17-.51-.11-.14-.25-.22-.42-.26l-1.74-.39v-.69h7.19v.69l-1.8.39c-.17.04-.31.12-.43.26-.12.14-.18.31-.18.5v15.33h6.69c.18,0,.32-.08.4-.24.08-.16.14-.31.16-.43l.94-3.54h.86v5.32h-13.82Z"/>
        </g>
        <g>
          <path class="cls-1" d="M221.35,77.22v-6.32c0-.28-.08-.51-.25-.71-.16-.2-.37-.32-.61-.37l-2.82-.59v-.98h10.33v.98l-2.4.59c-.23.05-.43.17-.6.37-.17.2-.26.43-.26.71v5.72c0,.81.01,1.45.04,1.93-1.24.53-2.72.99-4.46,1.37-1.74.38-3.48.58-5.23.58-2.2,0-4.22-.54-6.07-1.62-1.85-1.08-3.33-2.63-4.44-4.67-1.11-2.03-1.67-4.49-1.67-7.38,0-2.73.56-5.12,1.67-7.19,1.11-2.07,2.62-3.68,4.52-4.83,1.91-1.15,4.06-1.72,6.46-1.72,1.36,0,2.58.07,3.65.21,1.07.14,2.05.32,2.93.54.88.22,1.7.46,2.44.71v6.19h-1.25l-1.08-3.46c-.06-.21-.17-.38-.31-.49s-.31-.22-.5-.32c-.82-.47-1.86-.85-3.11-1.15-1.26-.3-2.5-.44-3.72-.44-1.49,0-2.82.42-4,1.26-1.18.84-2.11,2.1-2.79,3.78-.68,1.68-1.02,3.78-1.02,6.3s.33,4.58,1,6.47c.67,1.89,1.64,3.38,2.91,4.46,1.27,1.08,2.83,1.62,4.66,1.62.82,0,1.63-.1,2.43-.29.8-.2,1.52-.41,2.15-.65.63-.24,1.09-.44,1.38-.59Z"/>
          <path class="cls-1" d="M251.58,76.35v-.7l1.8-.42c.18-.05.33-.14.45-.27.12-.14.18-.3.18-.5v-14.98c0-.21-.06-.38-.18-.52-.12-.14-.27-.23-.45-.26l-1.8-.41v-.7h7.33v.7l-1.78.41c-.17.04-.32.13-.44.27s-.18.32-.18.51v14.98c0,.21.06.38.18.51.12.13.27.22.45.26l1.78.42v.7h-7.33Z"/>
          <path class="cls-1" d="M262.53,76.35v-.7l1.78-.42c.17-.05.32-.14.43-.27s.18-.3.18-.5v-14.98c0-.21-.06-.38-.18-.52s-.26-.23-.43-.26l-1.78-.41v-.7h7.38v.7l-1.85.41c-.17.04-.32.13-.45.27s-.19.32-.19.51v15.73h6.87c.19,0,.33-.08.41-.25.09-.17.14-.31.17-.44l.96-3.64h.88v5.46h-14.18Z"/>
          <path class="cls-1" d="M281.47,76.17v-.7l1.78-.42c.17-.05.32-.14.43-.27s.18-.3.18-.5v-14.98c0-.21-.06-.38-.18-.52s-.26-.23-.43-.26l-1.78-.41v-.7h7.38v.7l-1.85.41c-.17.04-.32.13-.45.27s-.19.32-.19.51v15.73h6.87c.19,0,.33-.08.41-.25.09-.17.14-.31.17-.44l.96-3.64h.88v5.46h-14.18Z"/>
          <path class="cls-1" d="M296.68,76.17v-.7l1.8-.42c.18-.05.33-.14.45-.27.12-.14.18-.3.18-.5v-14.98c0-.21-.06-.38-.18-.52-.12-.14-.27-.23-.45-.26l-1.8-.41v-.7h7.33v.7l-1.78.41c-.17.04-.32.13-.44.27s-.18.32-.18.51v14.98c0,.21.06.38.18.51.12.13.27.22.45.26l1.78.42v.7h-7.33Z"/>
          <path class="cls-1" d="M357.54,76.17v-.7l1.78-.42c.17-.05.32-.14.43-.27s.18-.3.18-.5v-14.98c0-.21-.06-.38-.18-.52s-.26-.23-.43-.26l-1.78-.41v-.7h13.83v4.45h-.91l-.88-2.84c-.04-.14-.11-.26-.2-.35-.09-.09-.21-.14-.36-.14h-6.6v7.3h4.26c.18,0,.31-.04.39-.12.08-.08.14-.19.19-.32l.72-2.2h.77v6.45h-.77l-.72-2.18c-.04-.15-.11-.27-.19-.36-.08-.09-.21-.13-.39-.13h-4.26v8.07h7.73c.16,0,.29-.04.37-.13.09-.09.15-.2.18-.36l.84-3.2h.91v4.83h-14.92Z"/>
        </g>
        <path class="cls-1" d="M359.67,44.07v-.55l1.38-.39c.13-.04.24-.11.34-.22s.14-.24.14-.38v-11.51c0-.16-.05-.29-.14-.4s-.2-.17-.34-.21l-1.48-.36v-.55h3.66l6.99,10.03.95,1.43h.02v-9.93c0-.16-.05-.29-.14-.39-.09-.1-.2-.17-.34-.2l-1.38-.39v-.55h4.72v.55l-1.38.39c-.13.04-.25.1-.34.21-.09.1-.14.23-.14.39v10.63l-.31,2.5h-.7l-7.58-10.86-1.05-1.56h-.03v10.79c0,.16.05.29.14.39.09.1.2.17.34.2l1.38.39v.55h-4.71Z"/>
        <g>
          <path class="cls-1" d="M215.45,132.21c-2.12,0-3.88-.37-5.3-1.1-1.42-.73-2.49-1.68-3.22-2.84-.73-1.16-1.09-2.4-1.09-3.72v-16.37c0-.29-.08-.53-.25-.72-.17-.19-.38-.32-.63-.37l-2.46-.56v-.98h10.14v.98l-2.46.56c-.24.05-.44.18-.61.38-.17.2-.25.44-.25.71v15.19c0,.68.09,1.4.26,2.18.18.78.5,1.51.98,2.21.48.7,1.15,1.28,2.04,1.73s2.03.68,3.44.68,2.62-.23,3.54-.69c.92-.46,1.65-1.04,2.18-1.74.53-.7.9-1.44,1.12-2.21.21-.77.32-1.48.32-2.13v-15.11c0-.29-.08-.52-.24-.7-.16-.18-.36-.3-.6-.37l-2.48-.69v-.98h8.43v.98l-2.48.69c-.24.06-.44.19-.6.38-.16.19-.24.42-.24.69v15.49c0,1.53-.31,2.83-.94,3.9-.63,1.07-1.43,1.94-2.41,2.6s-2.02,1.15-3.12,1.46c-1.1.31-2.11.47-3.05.47Z"/>
          <path class="cls-1" d="M231.09,128.27v-.67l1.7-.48c.16-.04.3-.13.41-.26.11-.13.17-.29.17-.47v-14.18c0-.2-.06-.36-.17-.49s-.25-.22-.41-.26l-1.82-.44v-.67h4.51l8.61,12.36,1.17,1.76h.03v-12.23c0-.2-.06-.36-.17-.48-.11-.12-.25-.21-.41-.25l-1.7-.48v-.67h5.81v.67l-1.7.48c-.16.04-.3.13-.42.26-.12.13-.17.29-.17.48v13.09l-.39,3.07h-.87l-9.34-13.38-1.29-1.92h-.04v13.29c0,.2.06.36.17.48.11.13.25.21.41.25l1.7.48v.67h-5.8Z"/>
          <path class="cls-1" d="M252.88,128.27v-.67l1.72-.4c.17-.04.31-.13.43-.26.11-.13.17-.29.17-.48v-14.31c0-.2-.06-.36-.17-.5-.11-.13-.25-.22-.43-.25l-1.72-.39v-.67h7v.67l-1.7.39c-.16.03-.3.12-.42.26s-.17.3-.17.49v14.31c0,.2.06.36.17.48.11.12.25.21.43.25l1.7.4v.67h-7Z"/>
          <path class="cls-1" d="M273.1,128.53l-6.4-16.4c-.07-.15-.17-.31-.29-.46-.13-.15-.27-.25-.45-.3l-1.23-.35v-.67h6.43v.67l-2.21.48,4.66,11.97.63,1.78h.03l5.09-13.69-2.19-.54v-.67h5.16v.67l-1.15.36c-.17.04-.32.14-.45.29-.13.15-.23.3-.3.46l-5.18,13.44-1.47,2.96h-.68Z"/>
          <path class="cls-1" d="M285.59,128.26v-.67l1.7-.4c.16-.04.3-.13.41-.26.11-.13.17-.29.17-.48v-14.31c0-.2-.06-.36-.17-.5s-.25-.22-.41-.25l-1.7-.39v-.67h13.21v4.25h-.87l-.84-2.71c-.04-.14-.11-.25-.19-.34-.08-.09-.2-.13-.34-.13h-6.3v6.97h4.07c.17,0,.3-.04.37-.12.08-.08.14-.18.18-.31l.68-2.1h.74v6.16h-.74l-.68-2.08c-.04-.15-.1-.26-.18-.34-.08-.08-.2-.12-.37-.12h-4.07v7.71h7.39c.15,0,.27-.04.36-.12.08-.08.14-.2.17-.34l.8-3.06h.87v4.61h-14.26Z"/>
          <path class="cls-1" d="M304,128.26v-.67l1.7-.4c.16-.04.3-.13.41-.26.11-.13.17-.29.17-.48v-14.31c0-.2-.06-.36-.17-.5s-.25-.22-.41-.25l-1.7-.39v-.67h6.71c1.33,0,2.43.13,3.28.39.85.26,1.52.61,1.99,1.04.47.43.8.91.98,1.43.18.52.27,1.06.27,1.6,0,.98-.22,1.82-.67,2.52-.44.7-.99,1.25-1.64,1.66-.65.41-1.28.68-1.88.82l-1.98.58-2.6-.5.12-.89c.08.03.25.06.52.09s.56.05.87.06c.31.01.54.02.72.02.9,0,1.65-.18,2.24-.54.59-.36,1.03-.84,1.32-1.44.29-.6.43-1.23.43-1.9,0-1.36-.37-2.35-1.1-2.96-.74-.62-1.78-.92-3.14-.92h-1.77v15.07c0,.2.05.36.14.49.09.13.23.21.41.25l1.92.4v.67h-7.15ZM320.89,128.26h-2.79c-.53,0-.93-.05-1.23-.16-.29-.11-.54-.28-.75-.52-.21-.24-.45-.56-.74-.94l-4.67-6.46,2.35-.57,4.98,6.59c.15.21.36.42.61.63s.48.35.69.4l1.54.36v.67Z"/>
          <path class="cls-1" d="M323.78,127.53l-.27-4.65h.83l.94,2.6c.04.1.13.22.25.36.12.13.23.23.33.29.4.25.83.48,1.31.68.48.2.95.36,1.41.47.46.11.86.17,1.21.17,1.14,0,2.04-.3,2.71-.9.67-.6,1.01-1.46,1.01-2.56,0-.79-.22-1.44-.65-1.94-.44-.5-1.02-.91-1.76-1.23-.66-.28-1.32-.49-1.98-.64-.66-.15-1.31-.36-1.96-.61-.97-.4-1.73-.96-2.27-1.7-.54-.74-.81-1.62-.81-2.67,0-.98.25-1.87.76-2.67s1.19-1.43,2.06-1.89c.87-.46,1.85-.7,2.93-.7.61,0,1.2.04,1.78.12s1.13.19,1.67.32c.54.13,1.05.27,1.54.43v4.3h-.83l-.83-2.41c-.04-.13-.12-.25-.24-.36-.12-.11-.22-.2-.32-.26-.26-.19-.57-.35-.94-.48-.37-.13-.75-.23-1.13-.3-.38-.07-.72-.1-1-.1-1.05,0-1.87.26-2.47.79-.59.53-.89,1.2-.89,2.02,0,.71.17,1.37.5,2,.33.62.99,1.12,1.97,1.48.64.22,1.26.42,1.87.58.61.16,1.28.39,2,.68.54.22,1.06.51,1.55.87.49.35.9.81,1.21,1.37.32.56.48,1.27.48,2.13,0,.91-.23,1.79-.68,2.65-.45.85-1.17,1.55-2.14,2.1s-2.25.83-3.83.83c-.52,0-1.07-.06-1.66-.17-.59-.11-1.19-.26-1.81-.43-.62-.18-1.24-.36-1.85-.55Z"/>
          <path class="cls-1" d="M339.46,128.26v-.67l1.72-.4c.17-.04.31-.13.43-.26.11-.13.17-.29.17-.48v-14.31c0-.2-.06-.36-.17-.5-.11-.13-.25-.22-.43-.25l-1.72-.39v-.67h7v.67l-1.7.39c-.16.03-.3.12-.42.26s-.17.3-.17.49v14.31c0,.2.06.36.17.48.11.12.25.21.43.25l1.7.4v.67h-7Z"/>
          <path class="cls-1" d="M355.84,128.57v-.67l1.94-.4c.16-.03.3-.12.41-.25.11-.13.17-.29.17-.48v-15.04h-4.15c-.16,0-.29.04-.37.13-.08.09-.14.2-.19.34l-.85,2.84h-.83v-4.38h15.2v4.38h-.84l-.85-2.84c-.04-.14-.1-.25-.18-.34-.08-.09-.19-.13-.35-.13h-4.2v15.04c0,.2.06.36.17.49.12.13.26.21.42.25l1.94.4v.67h-7.45Z"/>
          <path class="cls-1" d="M375.3,128.26v-.67l1.94-.4c.16-.03.3-.12.41-.25.11-.13.17-.29.17-.48v-5.35l-5-8.99c-.09-.15-.19-.31-.32-.46-.13-.15-.27-.25-.45-.3l-1.23-.35v-.67h6.43v.67l-2.21.48,3.8,6.73.84,1.56.08-.05,4.51-8.17-2.12-.54v-.67h5.08v.67l-1.16.36c-.16.05-.31.15-.44.3-.13.15-.24.3-.34.45l-5.07,8.9v5.44c0,.2.06.36.17.49.11.13.25.21.41.25l1.95.4v.67h-7.45Z"/>
        </g>
        <path class="cls-1" d="M213.09,156.94c-1.49,0-2.75-.33-3.79-1-1.04-.66-1.83-1.59-2.38-2.77-.55-1.18-.82-2.55-.82-4.1,0-1.47.28-2.79.84-3.98.56-1.18,1.36-2.13,2.41-2.82s2.3-1.05,3.76-1.05c1.59,0,2.9.36,3.93,1.07,1.03.71,1.8,1.66,2.3,2.84.5,1.19.75,2.5.75,3.93,0,.95-.13,1.9-.4,2.83-.27.93-.68,1.78-1.25,2.54-.57.76-1.29,1.37-2.18,1.82-.88.45-1.95.68-3.18.68ZM213.3,156.08c1.02,0,1.87-.29,2.55-.87.68-.58,1.19-1.37,1.53-2.38.34-1,.51-2.13.51-3.39,0-1.45-.18-2.73-.54-3.83-.36-1.1-.91-1.96-1.65-2.58-.74-.62-1.68-.93-2.81-.93s-1.95.31-2.63.93c-.68.62-1.17,1.43-1.48,2.43s-.47,2.08-.47,3.25c0,1.42.18,2.68.53,3.79.35,1.11.9,1.99,1.63,2.63.73.64,1.67.96,2.81.96Z"/>
        <path class="cls-1" d="M222.43,156.6v-.56l1.43-.34c.14-.04.25-.11.35-.22.09-.11.14-.24.14-.4v-12.01c0-.17-.05-.31-.14-.42-.09-.11-.21-.18-.35-.21l-1.43-.32v-.56h11.11v3.54h-.7l-.7-2.25c-.04-.12-.09-.21-.16-.28-.07-.07-.16-.11-.29-.11h-5.33v6.03h3.53c.14,0,.25-.03.31-.1.06-.07.12-.16.15-.27l.57-1.82h.6v5.28h-.6l-.57-1.81c-.04-.11-.09-.2-.15-.27-.07-.07-.17-.11-.31-.11h-3.53v5.7c0,.17.05.3.15.41.1.11.22.18.36.21l1.58.34v.56h-6.01Z"/>
        <path class="cls-1" d="M258.16,159.37v-6.24c0-.27-.08-.51-.24-.7-.16-.19-.36-.31-.6-.36l-2.78-.58v-.97h10.19v.97l-2.37.58c-.22.05-.42.17-.59.36-.17.19-.25.43-.25.7v5.64c0,.8.01,1.43.04,1.9-1.22.52-2.69.97-4.4,1.35s-3.43.57-5.16.57c-2.17,0-4.16-.53-5.98-1.6-1.82-1.06-3.28-2.6-4.38-4.6-1.1-2-1.64-4.43-1.64-7.28,0-2.69.55-5.05,1.64-7.1,1.1-2.04,2.58-3.63,4.46-4.76,1.88-1.13,4-1.7,6.37-1.7,1.34,0,2.55.07,3.6.21,1.06.14,2.02.31,2.89.53.87.22,1.67.45,2.41.7v6.11h-1.23l-1.06-3.42c-.06-.21-.17-.37-.31-.49-.14-.11-.31-.22-.49-.32-.81-.46-1.83-.84-3.07-1.13-1.24-.29-2.46-.44-3.67-.44-1.47,0-2.79.41-3.95,1.24-1.16.83-2.08,2.07-2.75,3.72s-1.01,3.73-1.01,6.22.33,4.52.99,6.39c.66,1.87,1.62,3.33,2.87,4.4,1.26,1.06,2.79,1.6,4.59,1.6.81,0,1.61-.1,2.4-.29.79-.19,1.5-.41,2.12-.64.62-.24,1.08-.43,1.36-.58Z"/>
        <path class="cls-1" d="M283.14,157.36c-.17-.05-.32-.15-.46-.3-.13-.15-.23-.31-.31-.48l-2.78-7.16c.74-.19,1.46-.32,2.14-.45v-.99c-.92.11-1.76.25-2.53.43l-3.45-8.9h-.69l-1.61,3.12-5.36,13.93c-.16.42-.42.68-.76.79l-1.2.38v.69h5.36v-.69c-.76-.19-1.53-.37-2.28-.56,0-.02.89-2.4.9-2.41.03-.08.17-.47.39-1.06.91-.56,1.87-1.09,3.34-1.94,1.21-.7,2.35-1.22,3.42-1.62l2.76,7.09-2.32.5v.69h6.63v-.69l-1.2-.38ZM274.37,150.11l-3.23,1.88c1.26-3.39,3.24-8.7,3.36-9.02h.04l.64,1.81,1.67,4.3c-1,.35-1.83.72-2.48,1.03Z"/>
        <path class="cls-1" d="M343.66,157.36c-.17-.05-.32-.15-.46-.3-.13-.15-.23-.31-.31-.48l-2.78-7.16c.74-.19,1.46-.32,2.14-.45v-.99c-.92.11-1.76.25-2.53.43l-3.45-8.9h-.69l-1.61,3.12-5.36,13.93c-.16.42-.42.68-.76.79l-1.2.38v.69h5.36v-.69c-.76-.19-1.53-.37-2.28-.56,0-.02.89-2.4.9-2.41.03-.08.17-.47.39-1.06.91-.56,1.87-1.09,3.34-1.94,1.21-.7,2.35-1.22,3.42-1.62l2.76,7.09-2.32.5v.69h6.63v-.69l-1.2-.38ZM334.88,150.11l-3.23,1.88c1.26-3.39,3.24-8.7,3.36-9.02h.04l.64,1.81,1.67,4.3c-1,.35-1.83.72-2.48,1.03Z"/>
        <path class="cls-1" d="M287.41,158.44v-.71l1.8-.42c.17-.05.32-.14.44-.27.12-.14.18-.3.18-.5v-15.1c0-.21-.06-.38-.18-.53-.12-.14-.26-.23-.44-.27l-1.8-.41v-.71h7.44v.71l-1.87.41c-.17.04-.32.13-.45.27-.13.15-.19.32-.19.52v15.86h6.92c.19,0,.33-.08.42-.25.09-.17.14-.32.17-.44l.97-3.67h.89v5.51h-14.3Z"/>
        <path class="cls-1" d="M308.77,158.53l-5.22-17.22c-.05-.19-.15-.36-.3-.5s-.31-.25-.49-.3l-1.13-.37v-.71h6.61v.71l-2.34.5,3.53,11.66.71,2.43h.04l3.72-11.84,1.42-3.41h1.02l3.91,12.66.79,2.68h.04l4.47-14.12-2.33-.57v-.71h5.44v.71l-1.13.38c-.17.05-.33.16-.48.32s-.25.32-.31.5l-4.51,13.8-1.4,3.39h-1.08l-4.16-13.35-.52-1.81h-.04l-3.72,11.77-1.42,3.39h-1.12Z"/>
        <path class="cls-1" d="M349.03,158.54v-.71l2.04-.42c.17-.04.32-.13.44-.27.12-.14.18-.31.18-.51v-5.64l-5.27-9.48c-.09-.16-.2-.32-.33-.48-.13-.16-.29-.27-.47-.32l-1.29-.37v-.71h6.79v.71l-2.33.5,4.01,7.1.89,1.65.08-.05,4.76-8.63-2.23-.57v-.71h5.36v.71l-1.23.38c-.17.05-.33.16-.46.31-.14.15-.25.31-.35.48l-5.35,9.39v5.74c0,.21.06.38.18.52.12.14.26.22.44.26l2.06.42v.71h-7.86Z"/>
        <path class="cls-1" d="M326.78,57.24l5.22,17.22c.05.19.15.36.3.5s.31.25.49.3l1.13.37v.71h-6.61v-.71s2.34-.5,2.34-.5l-3.53-11.66-.71-2.43h-.04l-3.72,11.84-1.42,3.41h-1.02l-3.91-12.66-.79-2.68h-.04l-4.47,14.12,2.33.57v.71s-5.44,0-5.44,0v-.71l1.13-.38c.17-.05.33-.16.48-.32s.25-.32.31-.5l4.51-13.8,1.4-3.39h1.08l4.16,13.35.52,1.81h.04l3.72-11.77,1.42-3.39h1.12Z"/>
        <path class="cls-1" d="M246.47,75.18c-.17-.05-.32-.15-.46-.3-.13-.15-.23-.31-.31-.48l-2.78-7.16c.74-.19,1.46-.32,2.14-.45v-.99c-.92.11-1.76.25-2.53.43l-3.45-8.9h-.69l-1.61,3.12-5.36,13.93c-.16.42-.42.68-.76.79l-1.2.38v.69h5.36v-.69c-.76-.19-1.53-.37-2.28-.56,0-.02.89-2.4.9-2.41.03-.08.17-.47.39-1.06.91-.56,1.87-1.09,3.34-1.94,1.21-.7,2.35-1.22,3.42-1.62l2.76,7.09-2.32.5v.69h6.63v-.69l-1.2-.38ZM237.69,67.93l-3.23,1.88c1.26-3.39,3.24-8.7,3.36-9.02h.04l.64,1.81,1.67,4.3c-1,.35-1.83.72-2.48,1.03Z"/>
        <path class="cls-1" d="M389.03,43.31c-.14-.04-.26-.13-.38-.25-.11-.12-.19-.25-.25-.39l-2.27-5.85c.61-.15,1.19-.26,1.75-.37v-.81c-.75.09-1.44.21-2.07.35l-2.82-7.27h-.57l-1.32,2.55-4.38,11.39c-.13.34-.34.55-.62.65l-.98.31v.57h4.38v-.57c-.62-.15-1.25-.3-1.87-.45,0-.01.73-1.96.74-1.97.03-.07.14-.38.32-.87.74-.46,1.53-.89,2.73-1.58.99-.57,1.92-1,2.8-1.32l2.26,5.79-1.9.41v.57h5.42v-.57l-.98-.31ZM381.85,37.39l-2.64,1.54c1.03-2.77,2.65-7.11,2.75-7.38h.03l.52,1.48,1.37,3.52c-.82.28-1.49.59-2.03.84Z"/>
        <path class="cls-1" d="M351.85,59.39v5.61c.42-.08.82-.13,1.27-.08v1.53c-.34.02-.77.03-1.27.08v7.68c0,.21.06.38.18.5.12.13.26.22.43.26l1.75.42v.69h-7.2v-.69l1.75-.42c.18-.05.32-.13.44-.26.12-.14.18-.3.18-.5v-7.3c-1.42.33-3.04.93-4.63,2.05-1.72,1.2-3.43,3.21-4.41,4.54v.71c0,.21.05.38.17.5.12.13.27.22.45.26l1.75.42v.69h-7.22v-.69l1.77-.42c.17-.05.31-.13.42-.26.12-.14.18-.3.18-.5v-14.81c0-.21-.06-.38-.18-.52-.12-.14-.25-.22-.42-.26l-1.77-.4v-.69h7.22v.69l-1.75.4c-.17.04-.32.13-.44.27-.12.15-.19.31-.19.51v11.93c1.73-2,4.87-5.01,9.05-5.91v-6.02c0-.21-.05-.38-.18-.52-.12-.14-.26-.22-.44-.26l-1.75-.4v-.69h7.2v.69l-1.75.4c-.18.04-.32.13-.44.27-.12.15-.17.31-.17.51Z"/>
        <line class="cls-3" x1="202.93" y1="91.59" x2="390" y2="91.59"/>
      </g>
      <g>
        <g>
          <path class="cls-2" d="M129.9,154.3c.08.08,1.54.09,2.05,0-1.15-8.31-3.33-1.3-2.05,0ZM129.9,154.3c.08.08,1.54.09,2.05,0-1.15-8.31-3.33-1.3-2.05,0Z"/>
          <path class="cls-2" d="M95.98,109.09c-.33.33-8.93.33-9.26,0-.45-.45-.13-11.09.22-12.64,1.23-5.48,7.53-5.54,8.85-1.06.38,1.28.67,13.21.19,13.7Z"/>
          <path class="cls-2" d="M108.31,109.09c-.14.15-3.97.15-4.1,0-.42-.48-.57-11.89,1.55-12.33,3.57-.75,3,11.83,2.55,12.33Z"/>
          <path class="cls-2" d="M79.5,109.09c-.14.15-3.97.15-4.1,0-.42-.48-.57-11.89,1.55-12.33,3.57-.75,3,11.83,2.55,12.33Z"/>
          <path class="cls-2" d="M89.81,56.67c.1-.12,2.68-.45,3.15.61.89,1.98,1.58,13.07.96,13.78-.14.15-4.11.2-4.11,0,0-2.18-.45-13.83,0-14.39Z"/>
          <path class="cls-2" d="M85.7,72.09c-.1.12-2.98.12-3.08,0-.57-.67.02-12.34,1.03-14.39,2.94.61,2.53,13.82,2.04,14.39Z"/>
          <path class="cls-2" d="M97.37,72.09c.09.12,2.63.12,2.72,0,.5-.67-.02-12.34-.91-14.39-2.59.61-2.23,13.82-1.8,14.39Z"/>
          <path class="cls-2" d="M32.26,46.4c.15.14.15,3.76,0,4.1-.95,2.09-3.47-7.53,0-4.1Z"/>
          <path class="cls-2" d="M51.79,149.17c.45.39-2.2,5-4.11,3.07-1.68-1.69,3.42-3.67,4.11-3.07Z"/>
        </g>
        <path class="cls-2" d="M69.32,60.48c-.26-.25-.6-.39-1.03-.39s-.76.13-1.02.39c-.26.25-.39.6-.39,1.03v.1c0,.44.13.79.39,1.06.25.26.6.4,1.02.4s.76-.14,1.03-.41c.26-.26.39-.62.39-1.06v-.09c0-.42-.12-.76-.39-1.02ZM69.48,64.81c-.3-.28-.69-.42-1.18-.42s-.87.14-1.17.42c-.3.28-.45.66-.45,1.12v.1c0,.45.15.82.45,1.1.3.27.69.41,1.17.41s.88-.14,1.18-.42c.29-.28.45-.65.45-1.1v-.09c0-.46-.15-.83-.45-1.11ZM69.48,64.81c-.3-.28-.69-.42-1.18-.42s-.87.14-1.17.42c-.3.28-.45.66-.45,1.12v.1c0,.45.15.82.45,1.1.3.27.69.41,1.17.41s.88-.14,1.18-.42c.29-.28.45-.65.45-1.1v-.09c0-.46-.15-.83-.45-1.11ZM69.32,60.48c-.26-.25-.6-.39-1.03-.39s-.76.13-1.02.39c-.26.25-.39.6-.39,1.03v.1c0,.44.13.79.39,1.06.25.26.6.4,1.02.4s.76-.14,1.03-.41c.26-.26.39-.62.39-1.06v-.09c0-.42-.12-.76-.39-1.02ZM69.32,60.48c-.26-.25-.6-.39-1.03-.39s-.76.13-1.02.39c-.26.25-.39.6-.39,1.03v.1c0,.44.13.79.39,1.06.25.26.6.4,1.02.4s.76-.14,1.03-.41c.26-.26.39-.62.39-1.06v-.09c0-.42-.12-.76-.39-1.02ZM69.48,64.81c-.3-.28-.69-.42-1.18-.42s-.87.14-1.17.42c-.3.28-.45.66-.45,1.12v.1c0,.45.15.82.45,1.1.3.27.69.41,1.17.41s.88-.14,1.18-.42c.29-.28.45-.65.45-1.1v-.09c0-.46-.15-.83-.45-1.11ZM111.32,65.66h2.82v-5.03l-2.82,5.03ZM111.32,65.66h2.82v-5.03l-2.82,5.03ZM69.48,64.81c-.3-.28-.69-.42-1.18-.42s-.87.14-1.17.42c-.3.28-.45.66-.45,1.12v.1c0,.45.15.82.45,1.1.3.27.69.41,1.17.41s.88-.14,1.18-.42c.29-.28.45-.65.45-1.1v-.09c0-.46-.15-.83-.45-1.11ZM69.32,60.48c-.26-.25-.6-.39-1.03-.39s-.76.13-1.02.39c-.26.25-.39.6-.39,1.03v.1c0,.44.13.79.39,1.06.25.26.6.4,1.02.4s.76-.14,1.03-.41c.26-.26.39-.62.39-1.06v-.09c0-.42-.12-.76-.39-1.02ZM69.32,60.48c-.26-.25-.6-.39-1.03-.39s-.76.13-1.02.39c-.26.25-.39.6-.39,1.03v.1c0,.44.13.79.39,1.06.25.26.6.4,1.02.4s.76-.14,1.03-.41c.26-.26.39-.62.39-1.06v-.09c0-.42-.12-.76-.39-1.02ZM69.48,64.81c-.3-.28-.69-.42-1.18-.42s-.87.14-1.17.42c-.3.28-.45.66-.45,1.12v.1c0,.45.15.82.45,1.1.3.27.69.41,1.17.41s.88-.14,1.18-.42c.29-.28.45-.65.45-1.1v-.09c0-.46-.15-.83-.45-1.11ZM111.32,65.66h2.82v-5.03l-2.82,5.03ZM111.32,65.66h2.82v-5.03l-2.82,5.03ZM69.48,64.81c-.3-.28-.69-.42-1.18-.42s-.87.14-1.17.42c-.3.28-.45.66-.45,1.12v.1c0,.45.15.82.45,1.1.3.27.69.41,1.17.41s.88-.14,1.18-.42c.29-.28.45-.65.45-1.1v-.09c0-.46-.15-.83-.45-1.11ZM69.32,60.48c-.26-.25-.6-.39-1.03-.39s-.76.13-1.02.39c-.26.25-.39.6-.39,1.03v.1c0,.44.13.79.39,1.06.25.26.6.4,1.02.4s.76-.14,1.03-.41c.26-.26.39-.62.39-1.06v-.09c0-.42-.12-.76-.39-1.02ZM29.12,45.47l-1.47-.45-.02.03c.15.23,2.65,4.01,4.24,6.43l.31-2.98c.11-.57.26-1.28.51-2.09l-3.57-.95ZM69.32,60.48c-.26-.25-.6-.39-1.03-.39s-.76.13-1.02.39c-.26.25-.39.6-.39,1.03v.1c0,.44.13.79.39,1.06.25.26.6.4,1.02.4s.76-.14,1.03-.41c.26-.26.39-.62.39-1.06v-.09c0-.42-.12-.76-.39-1.02ZM69.48,64.81c-.3-.28-.69-.42-1.18-.42s-.87.14-1.17.42c-.3.28-.45.66-.45,1.12v.1c0,.45.15.82.45,1.1.3.27.69.41,1.17.41s.88-.14,1.18-.42c.29-.28.45-.65.45-1.1v-.09c0-.46-.15-.83-.45-1.11ZM111.32,65.66h2.82v-5.03l-2.82,5.03ZM29.12,45.47l-1.47-.45-.02.03c.15.23,2.65,4.01,4.24,6.43l.31-2.98c.11-.57.26-1.28.51-2.09l-3.57-.95ZM111.32,65.66h2.82v-5.03l-2.82,5.03ZM69.48,64.81c-.3-.28-.69-.42-1.18-.42s-.87.14-1.17.42c-.3.28-.45.66-.45,1.12v.1c0,.45.15.82.45,1.1.3.27.69.41,1.17.41s.88-.14,1.18-.42c.29-.28.45-.65.45-1.1v-.09c0-.46-.15-.83-.45-1.11ZM69.32,60.48c-.26-.25-.6-.39-1.03-.39s-.76.13-1.02.39c-.26.25-.39.6-.39,1.03v.1c0,.44.13.79.39,1.06.25.26.6.4,1.02.4s.76-.14,1.03-.41c.26-.26.39-.62.39-1.06v-.09c0-.42-.12-.76-.39-1.02ZM29.12,45.47l-1.47-.45-.02.03c.15.23,2.65,4.01,4.24,6.43l.31-2.98c.11-.57.26-1.28.51-2.09l-3.57-.95ZM69.32,60.48c-.26-.25-.6-.39-1.03-.39s-.76.13-1.02.39c-.26.25-.39.6-.39,1.03v.1c0,.44.13.79.39,1.06.25.26.6.4,1.02.4s.76-.14,1.03-.41c.26-.26.39-.62.39-1.06v-.09c0-.42-.12-.76-.39-1.02ZM69.48,64.81c-.3-.28-.69-.42-1.18-.42s-.87.14-1.17.42c-.3.28-.45.66-.45,1.12v.1c0,.45.15.82.45,1.1.3.27.69.41,1.17.41s.88-.14,1.18-.42c.29-.28.45-.65.45-1.1v-.09c0-.46-.15-.83-.45-1.11ZM111.32,65.66h2.82v-5.03l-2.82,5.03ZM29.12,45.47l-1.47-.45-.02.03c.15.23,2.65,4.01,4.24,6.43l.31-2.98c.11-.57.26-1.28.51-2.09l-3.57-.95ZM111.32,65.66h2.82v-5.03l-2.82,5.03ZM69.48,64.81c-.3-.28-.69-.42-1.18-.42s-.87.14-1.17.42c-.3.28-.45.66-.45,1.12v.1c0,.45.15.82.45,1.1.3.27.69.41,1.17.41s.88-.14,1.18-.42c.29-.28.45-.65.45-1.1v-.09c0-.46-.15-.83-.45-1.11ZM69.32,60.48c-.26-.25-.6-.39-1.03-.39s-.76.13-1.02.39c-.26.25-.39.6-.39,1.03v.1c0,.44.13.79.39,1.06.25.26.6.4,1.02.4s.76-.14,1.03-.41c.26-.26.39-.62.39-1.06v-.09c0-.42-.12-.76-.39-1.02ZM29.12,45.47l-1.47-.45-.02.03c.15.23,2.65,4.01,4.24,6.43l.31-2.98c.11-.57.26-1.28.51-2.09l-3.57-.95ZM69.32,60.48c-.26-.25-.6-.39-1.03-.39s-.76.13-1.02.39c-.26.25-.39.6-.39,1.03v.1c0,.44.13.79.39,1.06.25.26.6.4,1.02.4s.76-.14,1.03-.41c.26-.26.39-.62.39-1.06v-.09c0-.42-.12-.76-.39-1.02ZM69.48,64.81c-.3-.28-.69-.42-1.18-.42s-.87.14-1.17.42c-.3.28-.45.66-.45,1.12v.1c0,.45.15.82.45,1.1.3.27.69.41,1.17.41s.88-.14,1.18-.42c.29-.28.45-.65.45-1.1v-.09c0-.46-.15-.83-.45-1.11ZM111.32,65.66h2.82v-5.03l-2.82,5.03ZM29.12,45.47l-1.47-.45-.02.03c.15.23,2.65,4.01,4.24,6.43l.31-2.98c.11-.57.26-1.28.51-2.09l-3.57-.95ZM111.32,65.66h2.82v-5.03l-2.82,5.03ZM69.48,64.81c-.3-.28-.69-.42-1.18-.42s-.87.14-1.17.42c-.3.28-.45.66-.45,1.12v.1c0,.45.15.82.45,1.1.3.27.69.41,1.17.41s.88-.14,1.18-.42c.29-.28.45-.65.45-1.1v-.09c0-.46-.15-.83-.45-1.11ZM69.32,60.48c-.26-.25-.6-.39-1.03-.39s-.76.13-1.02.39c-.26.25-.39.6-.39,1.03v.1c0,.44.13.79.39,1.06.25.26.6.4,1.02.4s.76-.14,1.03-.41c.26-.26.39-.62.39-1.06v-.09c0-.42-.12-.76-.39-1.02ZM29.12,45.47l-1.47-.45-.02.03c.15.23,2.65,4.01,4.24,6.43l.31-2.98c.11-.57.26-1.28.51-2.09l-3.57-.95ZM69.32,60.48c-.26-.25-.6-.39-1.03-.39s-.76.13-1.02.39c-.26.25-.39.6-.39,1.03v.1c0,.44.13.79.39,1.06.25.26.6.4,1.02.4s.76-.14,1.03-.41c.26-.26.39-.62.39-1.06v-.09c0-.42-.12-.76-.39-1.02ZM69.48,64.81c-.3-.28-.69-.42-1.18-.42s-.87.14-1.17.42c-.3.28-.45.66-.45,1.12v.1c0,.45.15.82.45,1.1.3.27.69.41,1.17.41s.88-.14,1.18-.42c.29-.28.45-.65.45-1.1v-.09c0-.46-.15-.83-.45-1.11ZM111.32,65.66h2.82v-5.03l-2.82,5.03ZM29.12,45.47l-1.47-.45-.02.03c.15.23,2.65,4.01,4.24,6.43l.31-2.98c.11-.57.26-1.28.51-2.09l-3.57-.95ZM111.32,65.66h2.82v-5.03l-2.82,5.03ZM69.48,64.81c-.3-.28-.69-.42-1.18-.42s-.87.14-1.17.42c-.3.28-.45.66-.45,1.12v.1c0,.45.15.82.45,1.1.3.27.69.41,1.17.41s.88-.14,1.18-.42c.29-.28.45-.65.45-1.1v-.09c0-.46-.15-.83-.45-1.11ZM69.32,60.48c-.26-.25-.6-.39-1.03-.39s-.76.13-1.02.39c-.26.25-.39.6-.39,1.03v.1c0,.44.13.79.39,1.06.25.26.6.4,1.02.4s.76-.14,1.03-.41c.26-.26.39-.62.39-1.06v-.09c0-.42-.12-.76-.39-1.02ZM29.12,45.47l-1.47-.45-.02.03c.15.23,2.65,4.01,4.24,6.43l.31-2.98c.11-.57.26-1.28.51-2.09l-3.57-.95ZM69.32,60.48c-.26-.25-.6-.39-1.03-.39s-.76.13-1.02.39c-.26.25-.39.6-.39,1.03v.1c0,.44.13.79.39,1.06.25.26.6.4,1.02.4s.76-.14,1.03-.41c.26-.26.39-.62.39-1.06v-.09c0-.42-.12-.76-.39-1.02ZM69.48,64.81c-.3-.28-.69-.42-1.18-.42s-.87.14-1.17.42c-.3.28-.45.66-.45,1.12v.1c0,.45.15.82.45,1.1.3.27.69.41,1.17.41s.88-.14,1.18-.42c.29-.28.45-.65.45-1.1v-.09c0-.46-.15-.83-.45-1.11ZM111.32,65.66h2.82v-5.03l-2.82,5.03ZM129.53,149.98l-1.23-.93-.02.02c.06.27,1.12,4.68,1.78,7.5l1.31-2.69c.3-.5.68-1.11,1.2-1.79l-3.03-2.11ZM129.53,149.98l-1.23-.93-.02.02c.06.27,1.12,4.68,1.78,7.5l1.31-2.69c.3-.5.68-1.11,1.2-1.79l-3.03-2.11ZM29.12,45.47l-1.47-.45-.02.03c.15.23,2.65,4.01,4.24,6.43l.31-2.98c.11-.57.26-1.28.51-2.09l-3.57-.95ZM111.32,65.66h2.82v-5.03l-2.82,5.03ZM69.48,64.81c-.3-.28-.69-.42-1.18-.42s-.87.14-1.17.42c-.3.28-.45.66-.45,1.12v.1c0,.45.15.82.45,1.1.3.27.69.41,1.17.41s.88-.14,1.18-.42c.29-.28.45-.65.45-1.1v-.09c0-.46-.15-.83-.45-1.11ZM69.32,60.48c-.26-.25-.6-.39-1.03-.39s-.76.13-1.02.39c-.26.25-.39.6-.39,1.03v.1c0,.44.13.79.39,1.06.25.26.6.4,1.02.4s.76-.14,1.03-.41c.26-.26.39-.62.39-1.06v-.09c0-.42-.12-.76-.39-1.02ZM29.12,45.47l-1.47-.45-.02.03c.15.23,2.65,4.01,4.24,6.43l.31-2.98c.11-.57.26-1.28.51-2.09l-3.57-.95ZM51.63,147.24c-.22.16-3.89,2.83-6.24,4.52l2.99.19c.57.08,1.28.2,2.11.42l.79-3.61.38-1.5-.03-.02ZM69.32,60.48c-.26-.25-.6-.39-1.03-.39s-.76.13-1.02.39c-.26.25-.39.6-.39,1.03v.1c0,.44.13.79.39,1.06.25.26.6.4,1.02.4s.76-.14,1.03-.41c.26-.26.39-.62.39-1.06v-.09c0-.42-.12-.76-.39-1.02ZM69.48,64.81c-.3-.28-.69-.42-1.18-.42s-.87.14-1.17.42c-.3.28-.45.66-.45,1.12v.1c0,.45.15.82.45,1.1.3.27.69.41,1.17.41s.88-.14,1.18-.42c.29-.28.45-.65.45-1.1v-.09c0-.46-.15-.83-.45-1.11ZM111.32,65.66h2.82v-5.03l-2.82,5.03ZM129.53,149.98l-1.23-.93-.02.02c.06.27,1.12,4.68,1.78,7.5l1.31-2.69c.3-.5.68-1.11,1.2-1.79l-3.03-2.11ZM129.53,149.98l-1.23-.93-.02.02c.06.27,1.12,4.68,1.78,7.5l1.31-2.69c.3-.5.68-1.11,1.2-1.79l-3.03-2.11ZM51.63,147.24c-.22.16-3.89,2.83-6.24,4.52l2.99.19c.57.08,1.28.2,2.11.42l.79-3.61.38-1.5-.03-.02ZM29.12,45.47l-1.47-.45-.02.03c.15.23,2.65,4.01,4.24,6.43l.31-2.98c.11-.57.26-1.28.51-2.09l-3.57-.95ZM111.32,65.66h2.82v-5.03l-2.82,5.03ZM69.48,64.81c-.3-.28-.69-.42-1.18-.42s-.87.14-1.17.42c-.3.28-.45.66-.45,1.12v.1c0,.45.15.82.45,1.1.3.27.69.41,1.17.41s.88-.14,1.18-.42c.29-.28.45-.65.45-1.1v-.09c0-.46-.15-.83-.45-1.11ZM68.3,63.06c.42,0,.76-.14,1.03-.41.26-.26.39-.62.39-1.06v-.09c0-.42-.12-.76-.39-1.02-.26-.25-.6-.39-1.03-.39s-.76.13-1.02.39c-.26.25-.39.6-.39,1.03v.1c0,.44.13.79.39,1.06.25.26.6.4,1.02.4ZM81.37.43C8.53,7.19-25.6,96.56,22,151.72c45.09,52.25,131.3,36.95,155.2-27.72C201.19,59.06,149.86-5.92,81.37.43ZM134.83,40.08l.78.49c.12.08.26.12.42.13.17,0,.32,0,.45-.05l10.45-4.03,2.71-.81.52.64-5.96,8.99-.83,1.2.02.02,8.85-3.52,2.71-.8.55.66-7.75,11.51c-.09.12-.14.26-.15.42-.02.15,0,.3.05.44l.33.86-.42.35-3.22-3.96.42-.34,1.44,1.15,5.25-7.79,1.1-1.6-.02-.02-8.88,3.54-2.73.82-.49-.61,5.66-8.51,1.22-1.78-.02-.02-10.61,4.2.79,1.67-.42.35-2.65-3.25.42-.34ZM126.81,109.09c-.67,0-.67-13.36,0-13.36h18.5c-.93,1.4-2.4,13.36-3.08,13.36h-15.42ZM130.94,128.11c-1.33.69-2.71.55-4.13.5v-17.47c2.17.36,13.87-.49,14.39,0,.99.94-8.55,16.09-10.26,16.97ZM144.86,92.7c-.87,1.32-14.47,1.45-16.37.83-2.38-.77-1.63-4.04-1.67-6.03,2.64.46,17.8-.61,18.5,0,.22.19.14,4.31-.46,5.2ZM118.9,30.72l1.32.36c.13.04.26.03.39-.02.12-.05.22-.13.29-.26l5.31-9.75c.07-.13.09-.27.07-.4-.03-.13-.09-.24-.2-.33l-1.03-.9.25-.46,4.77,2.6-.25.46-1.31-.36c-.12-.04-.25-.03-.38.02-.13.05-.23.14-.3.27l-5.31,9.75c-.08.14-.09.26-.06.39.02.12.09.24.19.33l1.01.9-.25.45-4.77-2.6.25-.46ZM95.34,24.85l1.29-.23c.12-.02.23-.08.32-.18.08-.09.14-.21.15-.35l.59-10.73c0-.15-.03-.27-.11-.38-.08-.1-.18-.17-.3-.2l-1.26-.36.02-.51,5.29.29-.03.51-1.34.22c-.12.02-.23.08-.33.18-.09.09-.15.22-.15.35l-.62,11.27,4.91.27c.14,0,.24-.05.31-.16.07-.12.12-.22.14-.31l.83-2.56.62.03-.22,3.91-10.15-.56.03-.5ZM93.93,38.17c25.6.96,48.59,21.34,50.35,47.27-2.98.49-1.7-.66-2.16-2.41-3.67-13.9-8.04-22.73-19.4-32.03-9.07-7.41-16.14-7.61-26.55-10.49-1.83-.51-2.68.35-2.24-2.34ZM120.45,67.38c.23.19.53.29.9.29.42,0,.76-.14.99-.43.23-.29.35-.69.35-1.2v-.8c0-.52-.12-.92-.35-1.2-.24-.29-.57-.42-.99-.42-.23,0-.46.06-.67.19-.21.13-.4.32-.56.56h-1.22v-5.02h4.86v1.27h-3.52v2.14c.16-.14.35-.25.56-.32.2-.08.42-.12.62-.12.83,0,1.47.25,1.93.76.45.51.68,1.23.68,2.15v.8c0,.93-.23,1.65-.7,2.16-.46.5-1.13.76-1.97.76-.72,0-1.32-.21-1.78-.62-.47-.42-.76-1-.88-1.76h0s1.33,0,1.33,0h0c.05.35.19.62.42.82ZM119.7,75.09v4.23l2.71-.07-.03-4.11,2.38.04v53.44c-1.47.15-7.19.3-7.19-1.54l-.14-52.01,2.27.03ZM91.36,118.39c-7.31,0-5,10.23-5.65,10.23h-18.5c-.67,0-.67-13.36,0-13.36h48.31c.47.47.66,13.36,0,13.36h-18.5c-.66,0,2.14-10.23-5.65-10.23ZM65.82,62.74c-.22-.35-.32-.74-.32-1.14v-.24c0-.78.25-1.41.77-1.89.51-.47,1.19-.71,2.03-.71s1.53.24,2.04.71c.52.48.77,1.11.77,1.89v.24c0,.41-.11.79-.32,1.16-.22.35-.5.63-.86.82.42.22.75.55,1,.99.25.44.38.9.38,1.4v.16c0,.56-.12,1.04-.37,1.46-.25.41-.6.73-1.06.96-.45.23-.97.35-1.58.35s-1.13-.12-1.58-.35c-.45-.22-.79-.55-1.05-.96-.25-.42-.37-.9-.37-1.46v-.16c0-.49.12-.96.37-1.4.25-.44.58-.76.99-.99-.34-.19-.62-.47-.83-.83ZM84.99,83.2c1.63-.49,4.87-4.54,6.35-4.64,1.83-.12,5.84,4.84,7.2,4.84,2.5,0,16.36-.6,16.96,0,.22.22.31,6.16,0,6.16h-15.93c-.49,0-5.61-5.2-8.24-5.13-2.11.06-6.99,5.13-8.21,5.13h-15.93c-2.05-10.61,11.42-4.41,17.79-6.35ZM80.57,81.33v-25.69c4.51-1.11,8.35-2.1,12.74-2.18.79.05,1.63.13,2.51.26.62.09,1.23.21,1.81.33.82.17,1.6.38,2.34.59.05,0,.08-.02.13-.03.06.05.13.08.19.13.89.58,1.8,1.16,1.94,2.39.33,2.88.21,22.85-.57,24.23-.88,1.54-1.86.46-2.92-.21-.91-.59-3.58-2.32-4.09-2.85-1.33-1.35-1.54-7.03-5.03-1.6-2.21,3.45-4.11,5.13-9.05,4.63ZM115.51,91.61v21.58h-46.76c-.11,0-1.54-1.43-1.54-1.54v-20.04h16.96c.45,0,5.38-4.8,7.36-5,1.84-.17,6.82,5,8.05,5h15.93ZM115.52,67.03v1.63h-1.38v-1.63h-4.36v-1.29l3.63-6.4h2.11v6.32h.76v1.37h-.76ZM91.35,39.2c-.15,2.48,2.04,5.16,3.55,7.12.42.54,7.13,5.36,6.29,7.49-1.13-.38-2.42-.74-3.77-.99-1.5-.29-3.66-.56-6.35-.39-.83-.02-1.74,0-2.81.12-2.1.22-6.42,2.32-6.66,2.07-1.77-1.89,6.57-7.13,7.39-8.78l2.36-6.62ZM88.78,38.17c.45,2.69-.42,1.83-2.24,2.34-11.42,3.15-17.71,3.44-27.58,11.52-11.13,9.11-14.48,17.92-17.98,31.39-.26.99-1.15,3.69-2.54,2.03-.63-.76.93-5.95,1.32-7.41,5.89-22.38,25.66-39.1,49.03-39.86ZM58.04,75.67l2.3-.04h.16v3.22h2.51v-3.2l2.13.02v52.95c-.29.3-5.9.29-6.74-.96-1.02-1.53-.59-31.79-.5-36.6.03-1.89,0-3.5.05-5.08.09-3.13.08-10.3.08-10.3ZM58.94,61.24v-1.43l1.41-.94h1.39v9.91h-1.39v-8.4l-1.41.86ZM55.9,93.67h-17.47c-.31,0-.31-6.17,0-6.17,2.55,0,16.86-.62,17.47,0,.22.22.31,6.17,0,6.17ZM72.59,14.4l.09.49-1.23.52c-.12.05-.21.13-.28.25-.07.12-.08.24-.06.38l2.04,10.87,4.73-.89c.13-.02.22-.1.25-.22.04-.13.06-.24.06-.33l.19-2.63.61-.12.7,3.77-9.79,1.84-.08-.49,1.17-.52c.12-.05.2-.13.27-.24.06-.11.08-.23.05-.37l-1.94-10.34c-.03-.14-.09-.25-.19-.34-.09-.08-.21-.12-.33-.12l-1.28-.05-.09-.49,5.1-.96ZM49.37,22.46l.3.43-.93,1c-.09.1-.15.22-.16.35,0,.14.02.27.11.39l6.35,9.23c.09.12.2.2.32.23.13.03.25.02.39-.02l1.28-.5.29.44-4.51,3.1-.3-.43.93-1.02c.09-.11.15-.22.16-.35.02-.14-.02-.26-.11-.39l-6.35-9.22c-.08-.13-.19-.22-.32-.25-.13-.04-.26-.03-.39.02l-1.27.52-.3-.44,4.51-3.1ZM25.99,42.61l7.38,1.97c.25-.59.56-1.2.92-1.84l.64.47c-.25.5-.49,1.03-.72,1.6l5.93,1.58c.15.03.3.05.46.03.16-.02.3-.08.42-.16l.81-.59.45.33-3.13,4.28-.45-.32.77-1.74-5.88-1.57c-.25.88-.45,1.87-.57,2.98-.15,1.36-.26,2.22-.32,3.07.28.43.46.7.5.76,0,0,1.13,1.7,1.13,1.72.48-.4.96-.81,1.43-1.21l.45.32-2.53,3.46-.45-.32.32-.95c.08-.29.04-.57-.15-.87l-6.47-10.04-1.26-2.51.33-.45ZM20.43,104.97c-3.39.97-4.78-3.32-2.04-4.1,3.39-.97,4.78,3.31,2.04,4.1ZM19.25,81.56c-1.5-.18-2.78-.63-3.84-1.37-1.06-.75-1.84-1.67-2.35-2.79-.5-1.12-.68-2.34-.52-3.65.08-.75.2-1.41.35-1.99.15-.58.31-1.1.49-1.57s.36-.9.55-1.3l3.39.4-.08.69-1.97.36c-.12.02-.22.07-.29.14-.07.08-.14.16-.21.25-.31.42-.58.96-.83,1.63-.25.67-.4,1.34-.49,2.01-.09.82.05,1.57.43,2.27.39.7,1.02,1.29,1.89,1.77.88.48,2,.8,3.39.96,1.33.15,2.53.12,3.61-.13,1.08-.25,1.96-.68,2.63-1.31.68-.63,1.07-1.44,1.19-2.44.05-.45.05-.9,0-1.36-.05-.45-.13-.86-.22-1.22-.08-.36-.17-.62-.23-.79l-3.46-.41c-.15-.02-.29.02-.41.09-.12.08-.19.18-.24.31l-.5,1.5-.54-.06.66-5.66.54.06.17,1.36c0,.12.07.24.16.35.1.11.22.17.37.19l1.62.19c.57.06,1.07.12,1.52.18.44.05.79.08,1.06.1.21.72.37,1.56.46,2.54.1.97.09,1.94-.02,2.9-.15,1.2-.57,2.28-1.28,3.22-.71.94-1.66,1.65-2.85,2.13-1.18.48-2.57.62-4.15.44ZM35.31,134.7l-.35-.59,1.33-1.49c.08-.09.13-.19.15-.29.02-.1.02-.21,0-.32,0-.52-.12-1.13-.34-1.8s-.49-1.3-.84-1.88c-.42-.71-.99-1.22-1.73-1.54-.73-.32-1.6-.4-2.58-.25-.99.15-2.07.59-3.27,1.3-1.15.69-2.08,1.46-2.78,2.31-.71.86-1.13,1.74-1.29,2.65-.15.91.04,1.8.56,2.67.23.39.51.74.83,1.06.32.32.62.6.92.83.29.23.52.39.67.49l2.99-1.79c.13-.08.22-.19.27-.32.05-.13.05-.26,0-.39l-.52-1.5.46-.28,2.93,4.9-.47.28-.96-.97c-.09-.09-.2-.15-.35-.18-.14-.02-.28,0-.41.08l-1.4.84c-.49.29-.93.56-1.31.78-.38.23-.68.42-.9.57-.6-.44-1.24-1.01-1.91-1.73-.67-.71-1.26-1.48-1.76-2.31-.62-1.04-.93-2.15-.95-3.33-.02-1.18.31-2.32.95-3.42.65-1.1,1.66-2.06,3.03-2.88,1.29-.77,2.58-1.19,3.88-1.25,1.29-.06,2.48.19,3.56.77,1.09.58,1.97,1.43,2.65,2.57.39.65.7,1.24.93,1.79.24.55.43,1.06.58,1.54.15.49.26.93.35,1.36l-2.93,1.76ZM55.9,95.72c.47.47.67,13.36,0,13.36h-15.42c-.68,0-1.96-11.98-2.06-13.36,2.53.46,16.86-.62,17.47,0ZM55.9,111.14v17.47c-7.82-.29-10.83-11.66-14.39-17.47h14.39ZM53.8,154.45c-.52-.22-1.06-.45-1.63-.66l-1.33,6c-.02.15-.03.3,0,.46.03.15.08.29.18.4l.62.79-.31.46-4.41-2.95.3-.46,1.77.7,1.3-5.95c-.89-.21-1.88-.37-3-.44-1.36-.09-2.23-.16-3.08-.19-.41.29-.68.49-.73.53-.02,0-1.66,1.2-1.67,1.21.42.46.85.92,1.27,1.38l-.3.46-3.57-2.38.3-.46.96.28c.29.08.57.02.86-.19l9.75-6.9,2.45-1.36.46.31-1.64,7.46c.59.22,1.22.5,1.87.83l-.43.66ZM55.9,130.66h27.75c-1.91,2.35-9.29,10.97-11.81,10.97-2.44,0-11.99-6.8-14.62-8.65-.94-.66-1.84.08-1.31-2.32ZM77.4,170.77l-9.91-2.27.12-.49h1.31c.12,0,.24-.05.35-.12.1-.08.17-.19.2-.32l2.4-10.46c.04-.15.02-.28-.04-.39-.05-.12-.15-.2-.25-.25l-1.19-.57.12-.49,5.16,1.19-.12.49-1.36-.02c-.12,0-.25.04-.35.12-.12.08-.19.19-.22.33l-2.52,11,4.8,1.1c.13.03.25,0,.33-.11.08-.1.15-.19.19-.28l1.26-2.39.62.15-.88,3.81ZM77.49,143.37c-3.08-.88.25-3.18,1.04-3.91,1.93-1.76,3.86-3.82,5.68-5.69.86-.88,1.32-2.67,1.67-2.91.61-.43,10.34-.79,11.62-.19,3.86,1.81,7.57,9.01,10.81,12.33-10.99,2.45-19.88,3.48-30.82.38ZM111.75,155.66c-.12.07-.22.18-.31.32-.08.15-.13.29-.15.43l-1.03,11.15-.47,2.78-.81.19-5.41-9.32-.7-1.27h-.03s-.78,9.49-.78,9.49l-.48,2.8-.84.19-6.88-12.05c-.08-.14-.18-.25-.32-.33-.13-.08-.27-.13-.42-.14l-.92-.08-.12-.53,4.97-1.13.12.53-1.68.79,4.66,8.16.95,1.7h.03s.76-9.55.76-9.55l.48-2.81.77-.18,5.11,8.85,1.06,1.88h.03s.93-11.38.93-11.38l-1.85-.03-.12-.53,4.09-.93.12.53-.78.48ZM110.87,141.72c-.87-.05-9.55-9.32-10.77-11.06h27.75c-1.96,2.71-14.71,11.2-16.97,11.06ZM137.29,157.93l-.31-.46,1.33-1.37-5-3.48c-.53.74-1.06,1.6-1.55,2.6-.61,1.22-1.01,2-1.36,2.78.12.49.2.81.22.88,0,.02.47,2,.48,2.01.58-.22,1.17-.43,1.76-.65l.31.46-3.56,2.39-.31-.46.63-.78c.18-.23.23-.52.15-.87l-2.64-11.64-.32-2.79.46-.31,6.26,4.38c.43-.46.93-.93,1.49-1.42l.44.66c-.4.39-.82.8-1.23,1.26l5.04,3.52c.12.08.26.15.42.19.15.04.31.03.44,0l.96-.28.31.46-4.41,2.95ZM155.02,140.16l-.46-.3.6-1.5c.05-.13.05-.26,0-.4-.04-.13-.12-.25-.25-.33l-3.66-2.41-8.41-.62c-.15,0-.3,0-.45,0-.16.02-.3.08-.41.17l-.79.69-.46-.3,2.9-4.4.46.3-.67,1.73,6.32.42,1.45.13v-.08l-3.57-6.76-1.33,1.2-.46-.3,2.28-3.48.46.31-.28.96c-.04.13-.04.28,0,.43.04.15.09.3.15.43l3.81,7.49,3.72,2.44c.13.09.27.12.41.11.14-.02.25-.08.35-.18l1.15-1.15.46.3-3.35,5.1ZM168.95,104.97c-1.13,1.06-6.53.99-5.14-2.56,1.66-4.19,7.19.62,5.14,2.56ZM169.61,78.97l-.57-1.28c-.05-.12-.15-.22-.27-.29-.13-.07-.26-.08-.42-.05l-4.29.84c.12.31.22.61.25.96l-1.16.22c-.06-.25-.14-.59-.25-.96l-5.88,1.15c-.15.03-.28.11-.35.21-.08.12-.12.24-.14.37l-.05,1.4-.53.1-1.08-5.51.53-.1.58,1.27c.06.13.15.23.27.3.12.07.25.09.41.06l5.58-1.1c-.46-1.04-1.17-2.18-2.26-3.24-1.17-1.13-2.97-2.14-4.14-2.69l-.54.11c-.16.03-.28.1-.35.2-.08.11-.12.24-.13.39l-.06,1.4-.52.11-1.09-5.52.53-.1.59,1.29c.05.12.15.22.26.29.12.06.25.08.41.05l11.32-2.21c.16-.04.28-.11.37-.22.08-.11.13-.23.13-.36l.05-1.41.53-.11,1.08,5.52-.53.1-.57-1.27c-.05-.12-.15-.22-.27-.3-.13-.07-.26-.09-.42-.06l-9.12,1.79c1.8,1.02,4.57,2.98,5.88,6.03l4.6-.9c.16-.03.28-.1.37-.22.08-.11.13-.23.13-.38l.05-1.4.53-.1,1.08,5.51-.53.1ZM128.29,149.06l-.02.02c.06.27,1.12,4.68,1.78,7.5l1.31-2.69c.3-.5.68-1.11,1.2-1.79l-3.03-2.11-1.23-.93ZM114.14,65.66v-5.03l-2.82,5.03h2.82ZM68.3,67.54c.49,0,.88-.14,1.18-.42.29-.28.45-.65.45-1.1v-.09c0-.46-.15-.83-.45-1.11-.3-.28-.69-.42-1.18-.42s-.87.14-1.17.42c-.3.28-.45.66-.45,1.12v.1c0,.45.15.82.45,1.1.3.27.69.41,1.17.41ZM68.3,63.06c.42,0,.76-.14,1.03-.41.26-.26.39-.62.39-1.06v-.09c0-.42-.12-.76-.39-1.02-.26-.25-.6-.39-1.03-.39s-.76.13-1.02.39c-.26.25-.39.6-.39,1.03v.1c0,.44.13.79.39,1.06.25.26.6.4,1.02.4ZM45.39,151.76l2.99.19c.57.08,1.28.2,2.11.42l.79-3.61.38-1.5-.03-.02c-.22.16-3.89,2.83-6.24,4.52ZM32.18,48.5c.11-.57.26-1.28.51-2.09l-3.57-.95-1.47-.45-.02.03c.15.23,2.65,4.01,4.24,6.43l.31-2.98ZM69.32,60.48c-.26-.25-.6-.39-1.03-.39s-.76.13-1.02.39c-.26.25-.39.6-.39,1.03v.1c0,.44.13.79.39,1.06.25.26.6.4,1.02.4s.76-.14,1.03-.41c.26-.26.39-.62.39-1.06v-.09c0-.42-.12-.76-.39-1.02ZM69.48,64.81c-.3-.28-.69-.42-1.18-.42s-.87.14-1.17.42c-.3.28-.45.66-.45,1.12v.1c0,.45.15.82.45,1.1.3.27.69.41,1.17.41s.88-.14,1.18-.42c.29-.28.45-.65.45-1.1v-.09c0-.46-.15-.83-.45-1.11ZM111.32,65.66h2.82v-5.03l-2.82,5.03ZM29.12,45.47l-1.47-.45-.02.03c.15.23,2.65,4.01,4.24,6.43l.31-2.98c.11-.57.26-1.28.51-2.09l-3.57-.95ZM129.53,149.98l-1.23-.93-.02.02c.06.27,1.12,4.68,1.78,7.5l1.31-2.69c.3-.5.68-1.11,1.2-1.79l-3.03-2.11ZM129.53,149.98l-1.23-.93-.02.02c.06.27,1.12,4.68,1.78,7.5l1.31-2.69c.3-.5.68-1.11,1.2-1.79l-3.03-2.11ZM111.32,65.66h2.82v-5.03l-2.82,5.03ZM69.48,64.81c-.3-.28-.69-.42-1.18-.42s-.87.14-1.17.42c-.3.28-.45.66-.45,1.12v.1c0,.45.15.82.45,1.1.3.27.69.41,1.17.41s.88-.14,1.18-.42c.29-.28.45-.65.45-1.1v-.09c0-.46-.15-.83-.45-1.11ZM69.32,60.48c-.26-.25-.6-.39-1.03-.39s-.76.13-1.02.39c-.26.25-.39.6-.39,1.03v.1c0,.44.13.79.39,1.06.25.26.6.4,1.02.4s.76-.14,1.03-.41c.26-.26.39-.62.39-1.06v-.09c0-.42-.12-.76-.39-1.02ZM29.12,45.47l-1.47-.45-.02.03c.15.23,2.65,4.01,4.24,6.43l.31-2.98c.11-.57.26-1.28.51-2.09l-3.57-.95ZM69.32,60.48c-.26-.25-.6-.39-1.03-.39s-.76.13-1.02.39c-.26.25-.39.6-.39,1.03v.1c0,.44.13.79.39,1.06.25.26.6.4,1.02.4s.76-.14,1.03-.41c.26-.26.39-.62.39-1.06v-.09c0-.42-.12-.76-.39-1.02ZM69.48,64.81c-.3-.28-.69-.42-1.18-.42s-.87.14-1.17.42c-.3.28-.45.66-.45,1.12v.1c0,.45.15.82.45,1.1.3.27.69.41,1.17.41s.88-.14,1.18-.42c.29-.28.45-.65.45-1.1v-.09c0-.46-.15-.83-.45-1.11ZM111.32,65.66h2.82v-5.03l-2.82,5.03ZM29.12,45.47l-1.47-.45-.02.03c.15.23,2.65,4.01,4.24,6.43l.31-2.98c.11-.57.26-1.28.51-2.09l-3.57-.95ZM129.53,149.98l-1.23-.93-.02.02c.06.27,1.12,4.68,1.78,7.5l1.31-2.69c.3-.5.68-1.11,1.2-1.79l-3.03-2.11ZM129.53,149.98l-1.23-.93-.02.02c.06.27,1.12,4.68,1.78,7.5l1.31-2.69c.3-.5.68-1.11,1.2-1.79l-3.03-2.11ZM111.32,65.66h2.82v-5.03l-2.82,5.03ZM69.48,64.81c-.3-.28-.69-.42-1.18-.42s-.87.14-1.17.42c-.3.28-.45.66-.45,1.12v.1c0,.45.15.82.45,1.1.3.27.69.41,1.17.41s.88-.14,1.18-.42c.29-.28.45-.65.45-1.1v-.09c0-.46-.15-.83-.45-1.11ZM69.32,60.48c-.26-.25-.6-.39-1.03-.39s-.76.13-1.02.39c-.26.25-.39.6-.39,1.03v.1c0,.44.13.79.39,1.06.25.26.6.4,1.02.4s.76-.14,1.03-.41c.26-.26.39-.62.39-1.06v-.09c0-.42-.12-.76-.39-1.02ZM29.12,45.47l-1.47-.45-.02.03c.15.23,2.65,4.01,4.24,6.43l.31-2.98c.11-.57.26-1.28.51-2.09l-3.57-.95ZM69.32,60.48c-.26-.25-.6-.39-1.03-.39s-.76.13-1.02.39c-.26.25-.39.6-.39,1.03v.1c0,.44.13.79.39,1.06.25.26.6.4,1.02.4s.76-.14,1.03-.41c.26-.26.39-.62.39-1.06v-.09c0-.42-.12-.76-.39-1.02ZM69.48,64.81c-.3-.28-.69-.42-1.18-.42s-.87.14-1.17.42c-.3.28-.45.66-.45,1.12v.1c0,.45.15.82.45,1.1.3.27.69.41,1.17.41s.88-.14,1.18-.42c.29-.28.45-.65.45-1.1v-.09c0-.46-.15-.83-.45-1.11ZM111.32,65.66h2.82v-5.03l-2.82,5.03ZM29.12,45.47l-1.47-.45-.02.03c.15.23,2.65,4.01,4.24,6.43l.31-2.98c.11-.57.26-1.28.51-2.09l-3.57-.95ZM111.32,65.66h2.82v-5.03l-2.82,5.03ZM69.48,64.81c-.3-.28-.69-.42-1.18-.42s-.87.14-1.17.42c-.3.28-.45.66-.45,1.12v.1c0,.45.15.82.45,1.1.3.27.69.41,1.17.41s.88-.14,1.18-.42c.29-.28.45-.65.45-1.1v-.09c0-.46-.15-.83-.45-1.11ZM69.32,60.48c-.26-.25-.6-.39-1.03-.39s-.76.13-1.02.39c-.26.25-.39.6-.39,1.03v.1c0,.44.13.79.39,1.06.25.26.6.4,1.02.4s.76-.14,1.03-.41c.26-.26.39-.62.39-1.06v-.09c0-.42-.12-.76-.39-1.02ZM29.12,45.47l-1.47-.45-.02.03c.15.23,2.65,4.01,4.24,6.43l.31-2.98c.11-.57.26-1.28.51-2.09l-3.57-.95ZM69.32,60.48c-.26-.25-.6-.39-1.03-.39s-.76.13-1.02.39c-.26.25-.39.6-.39,1.03v.1c0,.44.13.79.39,1.06.25.26.6.4,1.02.4s.76-.14,1.03-.41c.26-.26.39-.62.39-1.06v-.09c0-.42-.12-.76-.39-1.02ZM69.48,64.81c-.3-.28-.69-.42-1.18-.42s-.87.14-1.17.42c-.3.28-.45.66-.45,1.12v.1c0,.45.15.82.45,1.1.3.27.69.41,1.17.41s.88-.14,1.18-.42c.29-.28.45-.65.45-1.1v-.09c0-.46-.15-.83-.45-1.11ZM111.32,65.66h2.82v-5.03l-2.82,5.03ZM29.12,45.47l-1.47-.45-.02.03c.15.23,2.65,4.01,4.24,6.43l.31-2.98c.11-.57.26-1.28.51-2.09l-3.57-.95ZM111.32,65.66h2.82v-5.03l-2.82,5.03ZM69.48,64.81c-.3-.28-.69-.42-1.18-.42s-.87.14-1.17.42c-.3.28-.45.66-.45,1.12v.1c0,.45.15.82.45,1.1.3.27.69.41,1.17.41s.88-.14,1.18-.42c.29-.28.45-.65.45-1.1v-.09c0-.46-.15-.83-.45-1.11ZM69.32,60.48c-.26-.25-.6-.39-1.03-.39s-.76.13-1.02.39c-.26.25-.39.6-.39,1.03v.1c0,.44.13.79.39,1.06.25.26.6.4,1.02.4s.76-.14,1.03-.41c.26-.26.39-.62.39-1.06v-.09c0-.42-.12-.76-.39-1.02ZM29.12,45.47l-1.47-.45-.02.03c.15.23,2.65,4.01,4.24,6.43l.31-2.98c.11-.57.26-1.28.51-2.09l-3.57-.95ZM69.32,60.48c-.26-.25-.6-.39-1.03-.39s-.76.13-1.02.39c-.26.25-.39.6-.39,1.03v.1c0,.44.13.79.39,1.06.25.26.6.4,1.02.4s.76-.14,1.03-.41c.26-.26.39-.62.39-1.06v-.09c0-.42-.12-.76-.39-1.02ZM69.48,64.81c-.3-.28-.69-.42-1.18-.42s-.87.14-1.17.42c-.3.28-.45.66-.45,1.12v.1c0,.45.15.82.45,1.1.3.27.69.41,1.17.41s.88-.14,1.18-.42c.29-.28.45-.65.45-1.1v-.09c0-.46-.15-.83-.45-1.11ZM111.32,65.66h2.82v-5.03l-2.82,5.03ZM29.12,45.47l-1.47-.45-.02.03c.15.23,2.65,4.01,4.24,6.43l.31-2.98c.11-.57.26-1.28.51-2.09l-3.57-.95ZM111.32,65.66h2.82v-5.03l-2.82,5.03ZM69.48,64.81c-.3-.28-.69-.42-1.18-.42s-.87.14-1.17.42c-.3.28-.45.66-.45,1.12v.1c0,.45.15.82.45,1.1.3.27.69.41,1.17.41s.88-.14,1.18-.42c.29-.28.45-.65.45-1.1v-.09c0-.46-.15-.83-.45-1.11ZM69.32,60.48c-.26-.25-.6-.39-1.03-.39s-.76.13-1.02.39c-.26.25-.39.6-.39,1.03v.1c0,.44.13.79.39,1.06.25.26.6.4,1.02.4s.76-.14,1.03-.41c.26-.26.39-.62.39-1.06v-.09c0-.42-.12-.76-.39-1.02ZM29.12,45.47l-1.47-.45-.02.03c.15.23,2.65,4.01,4.24,6.43l.31-2.98c.11-.57.26-1.28.51-2.09l-3.57-.95ZM69.32,60.48c-.26-.25-.6-.39-1.03-.39s-.76.13-1.02.39c-.26.25-.39.6-.39,1.03v.1c0,.44.13.79.39,1.06.25.26.6.4,1.02.4s.76-.14,1.03-.41c.26-.26.39-.62.39-1.06v-.09c0-.42-.12-.76-.39-1.02ZM69.48,64.81c-.3-.28-.69-.42-1.18-.42s-.87.14-1.17.42c-.3.28-.45.66-.45,1.12v.1c0,.45.15.82.45,1.1.3.27.69.41,1.17.41s.88-.14,1.18-.42c.29-.28.45-.65.45-1.1v-.09c0-.46-.15-.83-.45-1.11ZM111.32,65.66h2.82v-5.03l-2.82,5.03ZM29.12,45.47l-1.47-.45-.02.03c.15.23,2.65,4.01,4.24,6.43l.31-2.98c.11-.57.26-1.28.51-2.09l-3.57-.95ZM111.32,65.66h2.82v-5.03l-2.82,5.03ZM69.48,64.81c-.3-.28-.69-.42-1.18-.42s-.87.14-1.17.42c-.3.28-.45.66-.45,1.12v.1c0,.45.15.82.45,1.1.3.27.69.41,1.17.41s.88-.14,1.18-.42c.29-.28.45-.65.45-1.1v-.09c0-.46-.15-.83-.45-1.11ZM69.32,60.48c-.26-.25-.6-.39-1.03-.39s-.76.13-1.02.39c-.26.25-.39.6-.39,1.03v.1c0,.44.13.79.39,1.06.25.26.6.4,1.02.4s.76-.14,1.03-.41c.26-.26.39-.62.39-1.06v-.09c0-.42-.12-.76-.39-1.02ZM29.12,45.47l-1.47-.45-.02.03c.15.23,2.65,4.01,4.24,6.43l.31-2.98c.11-.57.26-1.28.51-2.09l-3.57-.95ZM69.32,60.48c-.26-.25-.6-.39-1.03-.39s-.76.13-1.02.39c-.26.25-.39.6-.39,1.03v.1c0,.44.13.79.39,1.06.25.26.6.4,1.02.4s.76-.14,1.03-.41c.26-.26.39-.62.39-1.06v-.09c0-.42-.12-.76-.39-1.02ZM69.48,64.81c-.3-.28-.69-.42-1.18-.42s-.87.14-1.17.42c-.3.28-.45.66-.45,1.12v.1c0,.45.15.82.45,1.1.3.27.69.41,1.17.41s.88-.14,1.18-.42c.29-.28.45-.65.45-1.1v-.09c0-.46-.15-.83-.45-1.11ZM111.32,65.66h2.82v-5.03l-2.82,5.03ZM111.32,65.66h2.82v-5.03l-2.82,5.03ZM69.48,64.81c-.3-.28-.69-.42-1.18-.42s-.87.14-1.17.42c-.3.28-.45.66-.45,1.12v.1c0,.45.15.82.45,1.1.3.27.69.41,1.17.41s.88-.14,1.18-.42c.29-.28.45-.65.45-1.1v-.09c0-.46-.15-.83-.45-1.11ZM69.32,60.48c-.26-.25-.6-.39-1.03-.39s-.76.13-1.02.39c-.26.25-.39.6-.39,1.03v.1c0,.44.13.79.39,1.06.25.26.6.4,1.02.4s.76-.14,1.03-.41c.26-.26.39-.62.39-1.06v-.09c0-.42-.12-.76-.39-1.02ZM69.32,60.48c-.26-.25-.6-.39-1.03-.39s-.76.13-1.02.39c-.26.25-.39.6-.39,1.03v.1c0,.44.13.79.39,1.06.25.26.6.4,1.02.4s.76-.14,1.03-.41c.26-.26.39-.62.39-1.06v-.09c0-.42-.12-.76-.39-1.02ZM69.48,64.81c-.3-.28-.69-.42-1.18-.42s-.87.14-1.17.42c-.3.28-.45.66-.45,1.12v.1c0,.45.15.82.45,1.1.3.27.69.41,1.17.41s.88-.14,1.18-.42c.29-.28.45-.65.45-1.1v-.09c0-.46-.15-.83-.45-1.11ZM111.32,65.66h2.82v-5.03l-2.82,5.03ZM111.32,65.66h2.82v-5.03l-2.82,5.03ZM69.48,64.81c-.3-.28-.69-.42-1.18-.42s-.87.14-1.17.42c-.3.28-.45.66-.45,1.12v.1c0,.45.15.82.45,1.1.3.27.69.41,1.17.41s.88-.14,1.18-.42c.29-.28.45-.65.45-1.1v-.09c0-.46-.15-.83-.45-1.11ZM69.32,60.48c-.26-.25-.6-.39-1.03-.39s-.76.13-1.02.39c-.26.25-.39.6-.39,1.03v.1c0,.44.13.79.39,1.06.25.26.6.4,1.02.4s.76-.14,1.03-.41c.26-.26.39-.62.39-1.06v-.09c0-.42-.12-.76-.39-1.02Z"/>
        <path class="cls-2" d="M66.89,61.51c0-.42.13-.77.39-1.03.25-.25.6-.39,1.02-.39s.76.13,1.03.39c.26.25.39.59.39,1.02v.09c0,.45-.12.8-.39,1.06-.26.27-.6.41-1.03.41s-.76-.14-1.02-.4c-.26-.27-.39-.62-.39-1.06v-.1ZM69.93,66.02c0,.46-.15.83-.45,1.1-.3.28-.69.42-1.18.42s-.87-.14-1.17-.41c-.3-.28-.45-.64-.45-1.1v-.1c0-.46.15-.84.45-1.12.3-.28.69-.42,1.17-.42s.88.14,1.18.42c.29.28.45.65.45,1.11v.09Z"/>
        <path class="cls-2" d="M111.32,65.66l2.82-5.03v5.03h-2.82Z"/>
      </g>
    </g>
  </g>
</svg>